<svg width="1440" height="1024" viewBox="0 0 1440 1024" fill="none" xmlns="http://www.w3.org/2000/svg">
<rect width="1440" height="1024" fill="#202020"/>
<path d="M220.96 555.99C203.644 581.588 172.885 594.325 132 585C183.152 546.476 209.499 542.528 220.96 555.99C246.793 517.803 242.708 450.993 197.691 386.098C130.357 344.909 70.9447 291.181 50 268C119.561 300.5 167.706 342.874 197.691 386.098C280.919 437.01 376.25 468.766 426 400C434.38 382.375 414.859 337.072 377.745 296.965C350.557 302.286 309.283 282.896 237 225C293.591 226.924 343.261 259.701 377.745 296.965C405.638 291.506 418.703 260.037 435.215 217.46C401.3 193.641 440.169 175.487 460.287 156.68C463.458 149.861 466.847 142.955 470.5 136C472.262 143.168 467.469 149.966 460.287 156.68C450.266 178.228 442.413 198.899 435.215 217.46C454.795 231.21 498.633 246.849 584.341 265.593C588.139 266.014 591.866 266.81 595.5 268C591.704 267.192 587.985 266.39 584.341 265.593C495.127 255.695 366.749 452.251 483 585C508.375 596.574 565.379 607.753 609.76 571.952C616.488 565.358 622.423 560.106 625.5 556.5C620.5 562.421 615.225 567.543 609.76 571.952C583.372 597.815 544.782 644.338 618.549 693.341C674.075 702.936 731.903 723.477 786 756.5C702.791 735.953 650.277 714.418 618.549 693.341C512.742 675.058 415.294 696.523 367.957 747.107C362.778 774.818 353.879 808.025 340.5 847.5C332.395 807.226 343.473 773.271 367.957 747.107C404.721 550.402 254.041 630.702 187.811 712.598C186.945 713.854 186.169 714.831 185.5 715.5C186.258 714.533 187.029 713.565 187.811 712.598C202.896 690.723 245.192 584.45 220.96 555.99Z" fill="#F5F5F5"/>
<path d="M132 585C274.5 617.5 294 382 50 268C96.8333 319.833 336 524.4 426 400C442.167 366 354.5 228.995 237 225C426 376.383 403 264.5 470.5 136C480.167 175.333 292.5 203.5 595.5 268C506.5 238.845 361.8 446.6 483 585C511.5 598 579.9 610.5 625.5 556.5C605.167 580.333 460 676 786 756.5C575.5 628 308.5 688.5 340.5 847.5C449.972 524.5 259.5 621.1 185.5 715.5C203.333 697.667 297.5 460.356 132 585Z" stroke="#202020" stroke-width="2"/>
</svg>
