<svg width="1440" height="472" viewBox="0 0 1440 472" fill="none" xmlns="http://www.w3.org/2000/svg">
<path d="M99 236C99 301.122 93.407 360.049 84.3771 402.67C83.9315 404.773 83.4778 406.835 83.016 408.857C82.0635 406.777 81.128 404.653 80.2101 402.487C62.1775 359.93 51 301.069 51 236C51 170.931 62.1775 112.07 80.2101 69.5129C81.128 67.3466 82.0635 65.223 83.016 63.1434C83.4778 65.1646 83.9315 67.2272 84.3771 69.3301C93.407 111.951 99 170.878 99 236ZM68.5682 18.9939C73.6021 29.0436 78.2313 42.9559 82.2794 59.9827C80.9424 62.8183 79.6383 65.7361 78.3686 68.7327C60.2083 111.591 49 170.73 49 236C49 301.271 60.2083 360.409 78.3686 403.267C79.6383 406.264 80.9424 409.182 82.2794 412.017C78.2313 429.044 73.6021 442.956 68.5682 453.006C65.604 458.924 62.5246 463.451 59.382 466.486C56.2434 469.517 53.1091 471 50 471C46.8909 471 43.7566 469.517 40.618 466.486C37.4754 463.451 34.396 458.924 31.4318 453.006C25.5053 441.174 20.1396 423.989 15.6229 402.67C6.59304 360.049 1 301.122 1 236C1 170.878 6.59304 111.951 15.6229 69.3301C20.1396 48.0113 25.5053 30.8256 31.4318 18.9939C34.396 13.0764 37.4754 8.54918 40.618 5.51396C43.7566 2.48253 46.8909 1 50 1C53.1091 1 56.2434 2.48253 59.382 5.51396C62.5246 8.54918 65.604 13.0764 68.5682 18.9939ZM86.3336 68.9155C85.7017 65.9326 85.0526 63.0278 84.3872 60.2045C92.4714 43.1975 101.718 29.2995 111.782 19.2538C123.621 7.43587 136.535 1 150 1C163.465 1 176.379 7.43587 188.218 19.2538C200.061 31.0757 210.773 48.2325 219.79 69.5129C224.424 80.4483 228.605 92.4602 232.26 105.377C211.234 142.847 199 187.758 199 236C199 284.242 211.234 329.153 232.26 366.623C228.605 379.54 224.424 391.552 219.79 402.487C210.773 423.767 200.061 440.924 188.218 452.746C176.379 464.564 163.465 471 150 471C136.535 471 123.621 464.564 111.782 452.746C101.718 442.7 92.4714 428.802 84.3872 411.795C85.0526 408.972 85.7017 406.067 86.3336 403.084C95.4002 360.29 101 301.218 101 236C101 170.782 95.4002 111.71 86.3336 68.9155ZM201 236C201 188.806 212.771 144.895 233.021 108.108C243.124 144.911 249 188.824 249 236C249 283.176 243.124 327.089 233.021 363.892C212.771 327.105 201 283.194 201 236ZM234.407 366.376C244.899 328.972 251 284.155 251 236C251 187.845 244.899 143.028 234.407 105.624C270.117 42.5116 331.006 1 400 1C450.462 1 496.588 23.206 531.698 59.8282C526.56 62.5628 521.542 65.375 516.649 68.2615C444.107 111.061 399 170.333 399 236C399 301.667 444.107 360.939 516.649 403.738C521.542 406.625 526.56 409.437 531.698 412.172C496.588 448.794 450.462 471 400 471C331.006 471 270.117 429.488 234.407 366.376ZM517.665 69.9841C522.688 67.0209 527.844 64.1363 533.127 61.3335C573.554 104.321 599 166.611 599 236C599 305.389 573.554 367.679 533.127 410.667C527.844 407.864 522.688 404.979 517.665 402.016C445.436 359.401 401 300.672 401 236C401 171.328 445.436 112.599 517.665 69.9841ZM534.964 411.635C575.543 368.247 601 305.589 601 236C601 166.411 575.543 103.753 534.964 60.365C605.426 23.4468 698.249 1 800 1C880.991 1 956.327 15.2219 1019.23 39.6435C992.935 48.0683 968.423 57.644 946.02 68.2185C855.454 110.965 799 170.217 799 236C799 301.783 855.454 361.035 946.02 403.782C968.423 414.356 992.935 423.932 1019.23 432.356C956.327 456.778 880.991 471 800 471C698.249 471 605.426 448.553 534.964 411.635ZM946.873 70.0271C969.859 59.178 995.08 49.3804 1022.18 40.8017C1043.83 49.3693 1063.98 59.1524 1082.33 69.9841C1154.56 112.599 1199 171.328 1199 236C1199 300.672 1154.56 359.401 1082.33 402.016C1063.98 412.848 1043.83 422.631 1022.18 431.198C995.08 422.62 969.859 412.822 946.873 401.973C856.475 359.305 801 300.556 801 236C801 171.444 856.475 112.695 946.873 70.0271ZM1025.21 432.147C1046.08 423.762 1065.55 414.243 1083.35 403.738C1155.89 360.939 1201 301.667 1201 236C1201 170.333 1155.89 111.061 1083.35 68.2615C1065.55 57.7573 1046.08 48.2381 1025.21 39.853C1104.01 15.3016 1198.45 1 1300 1C1437.96 1 1562.81 27.3955 1653.13 70.0271C1743.53 112.695 1799 171.444 1799 236C1799 300.556 1743.53 359.305 1653.13 401.973C1562.81 444.605 1437.96 471 1300 471C1198.45 471 1104.01 456.698 1025.21 432.147Z" stroke="#F5F5F5" stroke-width="2"/>
</svg>
