<svg width="738" height="719" viewBox="0 0 738 719" fill="none" xmlns="http://www.w3.org/2000/svg">
<path d="M171.96 422.99C154.644 448.588 123.885 461.325 83 452C134.152 413.476 160.499 409.528 171.96 422.99C197.793 384.803 193.708 317.993 148.691 253.098C81.3568 211.909 21.9447 158.181 1 135C70.5606 167.5 118.706 209.874 148.691 253.098C231.919 304.01 327.25 335.766 377 267C385.38 249.375 365.859 204.072 328.745 163.965C301.557 169.286 260.283 149.896 188 92C244.591 93.9241 294.261 126.701 328.745 163.965C356.638 158.506 369.703 127.037 386.215 84.4595C352.3 60.6407 391.169 42.4874 411.287 23.6799C414.458 16.8614 417.847 9.95502 421.5 3C423.262 10.1684 418.469 16.9658 411.287 23.6799C401.266 45.2279 393.413 65.8992 386.215 84.4595C405.795 98.2104 449.633 113.849 535.341 132.593C539.139 133.014 542.866 133.81 546.5 135C542.704 134.192 538.985 133.39 535.341 132.593C446.127 122.695 317.749 319.251 434 452C459.375 463.574 516.379 474.753 560.76 438.952C567.488 432.358 573.423 427.106 576.5 423.5C571.5 429.421 566.225 434.543 560.76 438.952C534.372 464.815 495.782 511.338 569.549 560.341C625.075 569.936 682.903 590.477 737 623.5C653.791 602.953 601.277 581.418 569.549 560.341C463.742 542.058 366.294 563.523 318.957 614.107C313.778 641.818 304.879 675.025 291.5 714.5C283.395 674.226 294.473 640.271 318.957 614.107C355.721 417.402 205.041 497.702 138.811 579.598C137.945 580.854 137.169 581.831 136.5 582.5C137.258 581.533 138.029 580.565 138.811 579.598C153.896 557.723 196.192 451.45 171.96 422.99Z" fill="#F5F5F5"/>
<path d="M83 452C225.5 484.5 245 249 1 135C47.8333 186.833 287 391.4 377 267C393.167 233 305.5 95.9951 188 92C377 243.383 354 131.5 421.5 3C431.167 42.3333 243.5 70.5 546.5 135C457.5 105.845 312.8 313.6 434 452C462.5 465 530.9 477.5 576.5 423.5C556.167 447.333 411 543 737 623.5C526.5 495 259.5 555.5 291.5 714.5C400.972 391.5 210.5 488.1 136.5 582.5C154.333 564.667 248.5 327.356 83 452Z" stroke="#202020" stroke-width="2"/>
</svg>
